<mxfile host="app.diagrams.net" modified="2024-02-27T16:07:50.935Z" agent="Mozilla/5.0 (Macintosh; Intel Mac OS X 10_15_7) AppleWebKit/537.36 (KHTML, like Gecko) Chrome/122.0.0.0 Safari/537.36" version="23.1.7" etag="x49V-W0qhNGGPdnugcAC" type="github">
  <diagram name="Page-1" id="zdbCntdx2e--Cl2nT1c5">
    <mxGraphModel>
      <root>
        <mxCell id="0" />
        <mxCell id="1" parent="0" />
      </root>
    </mxGraphModel>
  </diagram>
</mxfile>
